<?xml version="1.0" encoding="UTF-8" standalone="no"?>
<svg
   width="200"
   height="200"
   version="1.1"
   id="svg6"
   sodipodi:docname="Herramientas 2.svg"
   inkscape:version="1.3.2 (091e20e, 2023-11-25, custom)"
   xml:space="preserve"
   xmlns:inkscape="http://www.inkscape.org/namespaces/inkscape"
   xmlns:sodipodi="http://sodipodi.sourceforge.net/DTD/sodipodi-0.dtd"
   xmlns="http://www.w3.org/2000/svg"
   xmlns:svg="http://www.w3.org/2000/svg"><defs
     id="defs6" /><sodipodi:namedview
     id="namedview6"
     pagecolor="#ffffff"
     bordercolor="#000000"
     borderopacity="0.25"
     inkscape:showpageshadow="2"
     inkscape:pageopacity="0.0"
     inkscape:pagecheckerboard="0"
     inkscape:deskcolor="#d1d1d1"
     inkscape:zoom="4.3027448"
     inkscape:cx="72.860469"
     inkscape:cy="98.890365"
     inkscape:window-width="2560"
     inkscape:window-height="1494"
     inkscape:window-x="-11"
     inkscape:window-y="-11"
     inkscape:window-maximized="1"
     inkscape:current-layer="svg6" /><path
     d="m 109.16561,29.804775 c -2.3521,-9.389045 -15.680657,-9.389045 -18.04243,0 l -0.687248,2.768311 a 9.292245,9.2922448 0 0 1 -15.700023,4.20087 l -1.984282,-2.042359 c -6.727187,-6.959508 -18.274744,-0.290383 -15.6129,9.01154 l 0.774356,2.748965 A 9.292245,9.2922448 0 0 1 46.433289,57.981568 l -2.748965,-0.784029 c -9.292237,-2.661844 -15.971048,8.885713 -9.011539,15.6129 l 2.042358,1.984282 a 9.292245,9.2922448 0 0 1 -4.20087,15.700022 l -2.768311,0.687249 c -9.389045,2.352101 -9.389045,15.680668 0,18.042438 l 2.768311,0.68724 a 9.292245,9.2922448 0 0 1 4.20087,15.70002 l -2.042358,1.98428 c -6.959509,6.72721 -0.290384,18.27476 9.011539,15.61292 l 2.748965,-0.77436 A 9.292245,9.2922448 0 0 1 57.922756,153.924 l -0.784029,2.73928 c -2.661844,9.29225 8.885713,15.97105 15.6129,9.01154 l 1.984282,-2.04236 a 9.292245,9.2922448 0 0 1 15.700023,4.20087 l 0.687248,2.76832 c 2.352101,9.38903 15.68066,9.38903 18.04243,0 l 0.68724,-2.76832 a 9.292245,9.2922448 0 0 1 15.70002,-4.20087 l 1.98428,2.04236 c 6.72721,6.95951 18.27476,0.29038 15.61292,-9.01154 l -0.77436,-2.74895 a 9.292245,9.2922448 0 0 1 11.48947,-11.48948 l 2.73928,0.78404 c 9.29225,2.66184 15.97105,-8.88571 9.01154,-15.61292 l -2.04236,-1.98428 a 9.292245,9.2922448 0 0 1 4.20087,-15.70002 l 2.76832,-0.68724 c 9.38903,-2.3521 9.38903,-15.680665 0,-18.042438 l -2.76832,-0.687249 a 9.292245,9.2922448 0 0 1 -4.20087,-15.700022 l 2.04236,-1.984282 c 6.95951,-6.727187 0.29038,-18.274744 -9.01154,-15.6129 l -2.74895,0.774356 A 9.292245,9.2922448 0 0 1 142.36603,46.492102 l 0.78404,-2.748965 c 2.66184,-9.292237 -8.88571,-15.971048 -15.61292,-9.01154 l -1.98428,2.042359 a 9.292245,9.2922448 0 0 1 -15.70002,-4.20087 z m -9.02122,118.766505 a 48.377751,48.37775 0 1 1 0,-96.745818 48.377755,48.377754 0 0 1 0,96.755508 z"
     id="path1"
     style="stroke-width:9.67943" /></svg>
