<?xml version="1.0" encoding="UTF-8" standalone="no"?>
<svg
   width="200"
   height="200"
   version="1.1"
   id="svg6"
   sodipodi:docname="Herramientas 1.svg"
   inkscape:version="1.3.2 (091e20e, 2023-11-25, custom)"
   xml:space="preserve"
   xmlns:inkscape="http://www.inkscape.org/namespaces/inkscape"
   xmlns:sodipodi="http://sodipodi.sourceforge.net/DTD/sodipodi-0.dtd"
   xmlns="http://www.w3.org/2000/svg"
   xmlns:svg="http://www.w3.org/2000/svg"><defs
     id="defs6" /><sodipodi:namedview
     id="namedview6"
     pagecolor="#ffffff"
     bordercolor="#000000"
     borderopacity="0.25"
     inkscape:showpageshadow="2"
     inkscape:pageopacity="0.0"
     inkscape:pagecheckerboard="0"
     inkscape:deskcolor="#d1d1d1"
     inkscape:zoom="4.3027448"
     inkscape:cx="72.860469"
     inkscape:cy="98.890365"
     inkscape:window-width="2560"
     inkscape:window-height="1494"
     inkscape:window-x="-11"
     inkscape:window-y="-11"
     inkscape:window-maximized="1"
     inkscape:current-layer="svg6" /><circle
     cx="100"
     cy="100"
     r="75"
     fill="none"
     stroke="#000"
     stroke-width="5"
     id="circle6" /><path
     d="m 105.5669,47.657596 c -1.71679,-6.85303 -11.445257,-6.85303 -13.169107,0 l -0.50162,2.02058 a 6.7823761,6.7823761 0 0 1 -11.45939,3.0662 l -1.44832,-1.49071 c -4.91015,-5.07972 -13.33867,-0.21195 -11.3958,6.57749 l 0.5652,2.00646 a 6.7823761,6.7823761 0 0 1 -8.37906,8.38612 l -2.00646,-0.57226 c -6.78237,-1.94287 -11.65721,6.48565 -6.57749,11.3958 l 1.49071,1.44832 a 6.7823761,6.7823761 0 0 1 -3.0662,11.45939 l -2.02058,0.50162 c -6.85303,1.71679 -6.85303,11.445264 0,13.169114 l 2.02058,0.50161 a 6.7823761,6.7823761 0 0 1 3.0662,11.45939 l -1.49071,1.44832 c -5.07972,4.91016 -0.21195,13.33868 6.57749,11.39581 l 2.00646,-0.5652 a 6.7823761,6.7823761 0 0 1 8.38612,8.38612 l -0.57226,1.99939 c -1.94287,6.78238 6.48565,11.65721 11.3958,6.57749 l 1.44832,-1.49071 a 6.7823761,6.7823761 0 0 1 11.45939,3.0662 l 0.50162,2.02059 c 1.71679,6.85302 11.445257,6.85302 13.169107,0 l 0.50161,-2.02059 a 6.7823761,6.7823761 0 0 1 11.45939,-3.0662 l 1.44832,1.49071 c 4.91016,5.07972 13.33868,0.21195 11.39581,-6.57749 l -0.5652,-2.00645 a 6.7823761,6.7823761 0 0 1 8.38612,-8.38613 l 1.99939,0.57227 c 6.78238,1.94287 11.65721,-6.48565 6.57749,-11.39581 l -1.49071,-1.44832 a 6.7823761,6.7823761 0 0 1 3.0662,-11.45939 l 2.02059,-0.50161 c 6.85302,-1.71679 6.85302,-11.445264 0,-13.169114 l -2.02059,-0.50162 a 6.7823761,6.7823761 0 0 1 -3.0662,-11.45939 l 1.49071,-1.44832 c 5.07972,-4.91015 0.21195,-13.33867 -6.57749,-11.3958 l -2.00645,0.5652 a 6.7823761,6.7823761 0 0 1 -8.38613,-8.37906 l 0.57227,-2.00646 c 1.94287,-6.78237 -6.48565,-11.65721 -11.39581,-6.57749 l -1.44832,1.49071 a 6.7823761,6.7823761 0 0 1 -11.45939,-3.0662 z m -6.584558,86.687244 a 35.310746,35.310746 0 1 1 0,-70.614424 35.310747,35.310747 0 0 1 0,70.621494 z"
     id="path1"
     style="stroke-width:7.06498" /></svg>
